<svg xmlns="http://www.w3.org/2000/svg" width="46" height="44" viewBox="0 0 46 44"><g transform="translate(-58 -4331)"><g transform="translate(93 4331)" fill="#fff" stroke="#000" stroke-width="1"><rect width="11" height="2" stroke="none"/><rect x="0.5" y="0.5" width="10" height="1" fill="none"/></g><g transform="translate(93 4331) rotate(90)" fill="#fff" stroke="#000" stroke-width="1"><rect width="11" height="2" stroke="none"/><rect x="0.5" y="0.5" width="10" height="1" fill="none"/></g><g transform="translate(82 4342) rotate(90)" fill="#fff" stroke="#000" stroke-width="1"><rect width="11" height="2" stroke="none"/><rect x="0.5" y="0.5" width="10" height="1" fill="none"/></g><g transform="translate(71 4353) rotate(90)" fill="#fff" stroke="#000" stroke-width="1"><rect width="11" height="2" stroke="none"/><rect x="0.5" y="0.5" width="10" height="1" fill="none"/></g><g transform="translate(60 4364) rotate(90)" fill="#fff" stroke="#000" stroke-width="1"><rect width="11" height="2" stroke="none"/><rect x="0.5" y="0.5" width="10" height="1" fill="none"/></g><g transform="translate(91 4342) rotate(180)" fill="#fff" stroke="#000" stroke-width="1"><rect width="11" height="2" stroke="none"/><rect x="0.5" y="0.5" width="10" height="1" fill="none"/></g><g transform="translate(80 4353) rotate(180)" fill="#fff" stroke="#000" stroke-width="1"><rect width="11" height="2" stroke="none"/><rect x="0.5" y="0.5" width="10" height="1" fill="none"/></g><g transform="translate(69 4364) rotate(180)" fill="#fff" stroke="#000" stroke-width="1"><rect width="11" height="2" stroke="none"/><rect x="0.5" y="0.5" width="10" height="1" fill="none"/></g></g></svg>