<svg xmlns="http://www.w3.org/2000/svg" width="28.827" height="28.878" viewBox="0 0 28.827 28.878"><path d="M18.662,6.117a6.4,6.4,0,0,1,5.053,5.053M18.662,1a11.513,11.513,0,0,1,10.17,10.157M27.553,21.365V25.2a2.558,2.558,0,0,1-2.789,2.558,25.316,25.316,0,0,1-11.04-3.927,24.945,24.945,0,0,1-7.675-7.675A25.316,25.316,0,0,1,2.122,5.068,2.558,2.558,0,0,1,4.668,2.279H8.506a2.558,2.558,0,0,1,2.558,2.2,16.425,16.425,0,0,0,.9,3.595,2.558,2.558,0,0,1-.576,2.7L9.759,12.4a20.467,20.467,0,0,0,7.675,7.675l1.625-1.625a2.558,2.558,0,0,1,2.7-.576,16.425,16.425,0,0,0,3.595.9,2.558,2.558,0,0,1,2.2,2.6Z" transform="translate(-1.111 0.104)" fill="none" stroke="#fff" stroke-linecap="round" stroke-linejoin="round" stroke-width="2"/></svg>